<svg width="908" height="749" viewBox="0 0 908 749" fill="none" xmlns="http://www.w3.org/2000/svg">
<path d="M0 613.776H908V709C908 731.091 890.091 749 868 749H40C17.9086 749 0 731.091 0 709V613.776Z" fill="black"/>
<rect opacity="0.47" width="908" height="749" rx="40" fill="black"/>
<g opacity="0.07">
<path d="M509.039 267.379C509.039 379.424 639 408 445.5 413C252 418 381.961 389.987 381.961 267.379C381.961 232.376 410.408 204 445.5 204C480.592 204 509.039 232.376 509.039 267.379Z" fill="#D9D9D9"/>
<path d="M538.5 394C538.5 401.18 498.725 407.5 445.43 407.5C392.134 407.5 348.93 403.18 348.93 396C348.93 388.82 361 402.3 445.43 383C529.86 363.7 533.142 391.945 538.5 394Z" fill="#878787"/>
<path d="M402 272C402 280.56 416.94 275.5 425.5 275.5C434.06 275.5 438.5 265.06 438.5 256.5C438.5 247.94 431.56 241 423 241C414.44 241 402 263.44 402 272Z" fill="black"/>
<path d="M488.5 272C488.5 280.56 473.56 275.5 465 275.5C456.44 275.5 452 265.06 452 256.5C452 247.94 458.94 241 467.5 241C476.06 241 488.5 263.44 488.5 272Z" fill="black"/>
<path d="M486 324C486 331.18 469.368 321 447 321C424.632 321 400.5 331.18 400.5 324C400.5 316.82 423.132 296 445.5 296C467.868 296 486 316.82 486 324Z" fill="black"/>
<path d="M334.88 445.576L332.888 445.072C332.696 445.024 332.632 444.896 332.696 444.688L333.296 442.792C333.36 442.584 333.488 442.512 333.68 442.576L335.576 443.344L335.432 441.304C335.416 441.096 335.528 440.992 335.768 440.992H337.76C337.984 440.992 338.088 441.096 338.072 441.304L337.928 443.344L339.824 442.576C340.016 442.512 340.144 442.584 340.208 442.792L340.832 444.688C340.896 444.896 340.832 445.024 340.64 445.072L338.624 445.576L339.896 447.184C340.008 447.328 339.984 447.456 339.824 447.568L338.216 448.768C338.056 448.88 337.92 448.856 337.808 448.696L336.752 447.064L335.72 448.696C335.608 448.856 335.472 448.88 335.312 448.768L333.68 447.568C333.52 447.456 333.504 447.328 333.632 447.184L334.88 445.576ZM345.79 446.872V453.688C345.79 453.896 345.678 454 345.454 454H342.838C342.63 454 342.526 453.896 342.526 453.688V440.992C342.526 440.768 342.63 440.656 342.838 440.656H344.086C344.662 440.656 345.118 440.752 345.454 440.944C345.806 441.136 346.134 441.488 346.438 442L349.99 447.736V440.992C349.99 440.768 350.094 440.656 350.302 440.656H350.974C351.742 440.656 352.31 440.84 352.678 441.208C353.046 441.576 353.23 442.2 353.23 443.08V453.688C353.23 453.896 353.126 454 352.918 454H350.662C350.326 454 350.078 453.856 349.918 453.568L345.79 446.872ZM361.585 454.216C359.521 454.216 357.929 453.6 356.809 452.368C355.689 451.136 355.129 449.464 355.129 447.352C355.129 445.928 355.385 444.704 355.896 443.68C356.409 442.64 357.145 441.84 358.105 441.28C359.065 440.704 360.225 440.416 361.585 440.416C362.945 440.416 364.105 440.704 365.065 441.28C366.025 441.84 366.761 442.64 367.273 443.68C367.785 444.704 368.041 445.928 368.041 447.352C368.041 449.464 367.481 451.136 366.361 452.368C365.241 453.6 363.649 454.216 361.585 454.216ZM361.585 451.168C362.481 451.168 363.225 450.888 363.817 450.328C364.425 449.752 364.729 448.76 364.729 447.352C364.729 445.912 364.425 444.904 363.817 444.328C363.225 443.752 362.481 443.464 361.585 443.464C360.689 443.464 359.937 443.752 359.329 444.328C358.737 444.904 358.441 445.912 358.441 447.352C358.441 448.76 358.737 449.752 359.329 450.328C359.937 450.888 360.689 451.168 361.585 451.168ZM372.333 443.656H368.901C368.693 443.656 368.589 443.56 368.589 443.368V440.992C368.589 440.768 368.693 440.656 368.901 440.656H377.781C378.341 440.656 378.757 440.8 379.029 441.088C379.301 441.376 379.437 441.776 379.437 442.288V443.248C379.437 443.52 379.317 443.656 379.077 443.656H375.573V453.688C375.573 453.896 375.469 454 375.261 454H372.645C372.437 454 372.333 453.896 372.333 453.688V443.656ZM383.875 448.84V453.688C383.875 453.896 383.779 454 383.587 454H380.971C380.763 454 380.659 453.896 380.659 453.688V440.992C380.659 440.768 380.763 440.656 380.971 440.656H381.643C382.395 440.656 382.955 440.84 383.323 441.208C383.691 441.576 383.875 442.192 383.875 443.056V445.864H387.955V440.992C387.955 440.768 388.059 440.656 388.267 440.656H388.963C389.715 440.656 390.275 440.84 390.643 441.208C391.011 441.576 391.195 442.192 391.195 443.056V453.688C391.195 453.896 391.091 454 390.883 454H388.267C388.059 454 387.955 453.896 387.955 453.688V448.84H383.875ZM393.432 453.688V440.992C393.432 440.768 393.536 440.656 393.744 440.656H394.416C395.168 440.656 395.736 440.84 396.12 441.208C396.504 441.576 396.696 442.2 396.696 443.08V453.688C396.696 453.896 396.584 454 396.36 454H393.744C393.536 454 393.432 453.896 393.432 453.688ZM402.134 446.872V453.688C402.134 453.896 402.022 454 401.798 454H399.182C398.974 454 398.87 453.896 398.87 453.688V440.992C398.87 440.768 398.974 440.656 399.182 440.656H400.43C401.006 440.656 401.462 440.752 401.798 440.944C402.15 441.136 402.478 441.488 402.782 442L406.334 447.736V440.992C406.334 440.768 406.438 440.656 406.646 440.656H407.318C408.086 440.656 408.654 440.84 409.022 441.208C409.39 441.576 409.574 442.2 409.574 443.08V453.688C409.574 453.896 409.47 454 409.262 454H407.006C406.67 454 406.422 453.856 406.262 453.568L402.134 446.872ZM420.136 450.688V449.224H418.912C417.808 449.224 417.256 448.688 417.256 447.616V446.632C417.256 446.36 417.376 446.224 417.616 446.224H422.848C423.12 446.224 423.256 446.36 423.256 446.632V451.72C423.256 451.96 423.216 452.16 423.136 452.32C423.072 452.464 422.928 452.608 422.704 452.752C421.936 453.328 421.208 453.72 420.52 453.928C419.832 454.12 419.048 454.216 418.168 454.216C417.272 454.216 416.424 454.096 415.624 453.856C414.824 453.6 414.112 453.208 413.488 452.68C412.864 452.136 412.368 451.416 412 450.52C411.648 449.624 411.472 448.528 411.472 447.232C411.472 445.808 411.744 444.592 412.288 443.584C412.848 442.56 413.632 441.776 414.64 441.232C415.664 440.688 416.88 440.416 418.288 440.416C418.864 440.416 419.44 440.456 420.016 440.536C420.608 440.6 421.144 440.744 421.624 440.968C422.568 441.352 422.896 442.04 422.608 443.032L422.344 444.088C422.312 444.28 422.216 444.376 422.056 444.376C421.976 444.376 421.88 444.352 421.768 444.304C421.672 444.256 421.584 444.224 421.504 444.208C421.04 443.968 420.592 443.784 420.16 443.656C419.728 443.528 419.184 443.464 418.528 443.464C417.408 443.464 416.52 443.768 415.864 444.376C415.208 444.968 414.88 445.984 414.88 447.424C414.88 448.624 415.16 449.552 415.72 450.208C416.296 450.864 417.096 451.192 418.12 451.192C418.84 451.192 419.512 451.024 420.136 450.688ZM431.137 443.656H427.705C427.497 443.656 427.393 443.56 427.393 443.368V440.992C427.393 440.768 427.497 440.656 427.705 440.656H436.585C437.145 440.656 437.561 440.8 437.833 441.088C438.105 441.376 438.241 441.776 438.241 442.288V443.248C438.241 443.52 438.121 443.656 437.881 443.656H434.377V453.688C434.377 453.896 434.273 454 434.065 454H431.449C431.241 454 431.137 453.896 431.137 453.688V443.656ZM445.28 454.216C443.216 454.216 441.624 453.6 440.504 452.368C439.384 451.136 438.824 449.464 438.824 447.352C438.824 445.928 439.08 444.704 439.592 443.68C440.104 442.64 440.84 441.84 441.8 441.28C442.76 440.704 443.92 440.416 445.28 440.416C446.64 440.416 447.8 440.704 448.76 441.28C449.72 441.84 450.456 442.64 450.968 443.68C451.48 444.704 451.736 445.928 451.736 447.352C451.736 449.464 451.176 451.136 450.056 452.368C448.936 453.6 447.344 454.216 445.28 454.216ZM445.28 451.168C446.176 451.168 446.92 450.888 447.512 450.328C448.12 449.752 448.424 448.76 448.424 447.352C448.424 445.912 448.12 444.904 447.512 444.328C446.92 443.752 446.176 443.464 445.28 443.464C444.384 443.464 443.632 443.752 443.024 444.328C442.432 444.904 442.136 445.912 442.136 447.352C442.136 448.76 442.432 449.752 443.024 450.328C443.632 450.888 444.384 451.168 445.28 451.168ZM456.06 450.112C456.06 449.936 456.1 449.792 456.18 449.68C456.276 449.568 456.38 449.512 456.492 449.512C456.62 449.512 456.716 449.536 456.78 449.584C456.844 449.632 456.908 449.688 456.972 449.752C457.404 450.2 457.956 450.56 458.628 450.832C459.316 451.104 460.124 451.24 461.052 451.24C461.756 451.24 462.26 451.136 462.564 450.928C462.884 450.704 463.044 450.432 463.044 450.112C463.044 449.808 462.884 449.568 462.564 449.392C462.244 449.2 461.836 449.032 461.34 448.888C460.844 448.728 460.316 448.552 459.756 448.36C459.196 448.152 458.668 447.888 458.172 447.568C457.676 447.248 457.268 446.832 456.948 446.32C456.628 445.808 456.468 445.16 456.468 444.376C456.468 443.48 456.692 442.744 457.14 442.168C457.588 441.576 458.188 441.136 458.94 440.848C459.692 440.56 460.516 440.416 461.412 440.416C462.084 440.416 462.684 440.456 463.212 440.536C463.756 440.616 464.276 440.736 464.772 440.896C465.332 441.104 465.676 441.376 465.804 441.712C465.948 442.032 465.948 442.448 465.804 442.96L465.564 443.824C465.516 444.032 465.42 444.136 465.276 444.136C465.164 444.136 465.028 444.096 464.868 444.016C464.34 443.792 463.804 443.608 463.26 443.464C462.732 443.32 462.148 443.248 461.508 443.248C460.372 443.248 459.804 443.568 459.804 444.208C459.804 444.528 459.964 444.784 460.284 444.976C460.604 445.168 461.012 445.336 461.508 445.48C462.004 445.624 462.532 445.792 463.092 445.984C463.668 446.176 464.204 446.424 464.7 446.728C465.196 447.032 465.604 447.44 465.924 447.952C466.244 448.464 466.404 449.12 466.404 449.92C466.404 451.2 465.948 452.24 465.036 453.04C464.14 453.84 462.884 454.24 461.268 454.24C460.116 454.24 459.148 454.024 458.364 453.592C457.596 453.16 457.02 452.624 456.636 451.984C456.252 451.344 456.06 450.72 456.06 450.112ZM471.109 448.84V453.688C471.109 453.896 471.013 454 470.821 454H468.205C467.997 454 467.893 453.896 467.893 453.688V440.992C467.893 440.768 467.997 440.656 468.205 440.656H468.877C469.629 440.656 470.189 440.84 470.557 441.208C470.925 441.576 471.109 442.192 471.109 443.056V445.864H475.189V440.992C475.189 440.768 475.293 440.656 475.501 440.656H476.197C476.949 440.656 477.509 440.84 477.877 441.208C478.245 441.576 478.429 442.192 478.429 443.056V453.688C478.429 453.896 478.325 454 478.117 454H475.501C475.293 454 475.189 453.896 475.189 453.688V448.84H471.109ZM486.835 454.216C484.771 454.216 483.179 453.6 482.059 452.368C480.939 451.136 480.379 449.464 480.379 447.352C480.379 445.928 480.635 444.704 481.146 443.68C481.659 442.64 482.395 441.84 483.355 441.28C484.315 440.704 485.475 440.416 486.835 440.416C488.195 440.416 489.355 440.704 490.315 441.28C491.275 441.84 492.011 442.64 492.523 443.68C493.035 444.704 493.291 445.928 493.291 447.352C493.291 449.464 492.731 451.136 491.611 452.368C490.491 453.6 488.899 454.216 486.835 454.216ZM486.835 451.168C487.731 451.168 488.475 450.888 489.067 450.328C489.675 449.752 489.979 448.76 489.979 447.352C489.979 445.912 489.675 444.904 489.067 444.328C488.475 443.752 487.731 443.464 486.835 443.464C485.939 443.464 485.187 443.752 484.579 444.328C483.987 444.904 483.691 445.912 483.691 447.352C483.691 448.76 483.987 449.752 484.579 450.328C485.187 450.888 485.939 451.168 486.835 451.168ZM499.258 449.272L501.082 440.992C501.146 440.768 501.266 440.656 501.442 440.656H502.714C503.418 440.656 503.978 440.792 504.394 441.064C504.81 441.336 505.106 441.92 505.282 442.816L506.65 449.296L508.354 440.992C508.434 440.768 508.57 440.656 508.762 440.656H511.522C511.602 440.656 511.658 440.688 511.69 440.752C511.738 440.816 511.746 440.896 511.714 440.992L508.594 453.688C508.546 453.896 508.426 454 508.234 454H505.33C505.122 454 505.002 453.896 504.97 453.688L502.93 445.408L500.89 453.688C500.842 453.896 500.722 454 500.53 454H497.602C497.41 454 497.274 453.896 497.194 453.688L494.242 440.992C494.226 440.912 494.234 440.84 494.266 440.776C494.298 440.696 494.37 440.656 494.482 440.656H495.466C496.154 440.656 496.714 440.792 497.146 441.064C497.578 441.336 497.874 441.92 498.034 442.816L499.258 449.272ZM519.673 449.128L515.353 440.992C515.321 440.912 515.313 440.84 515.329 440.776C515.361 440.696 515.433 440.656 515.545 440.656H517.225C517.785 440.656 518.249 440.768 518.617 440.992C519.001 441.216 519.329 441.592 519.601 442.12L521.425 445.696L523.777 440.992C523.889 440.768 524.049 440.656 524.257 440.656H527.089C527.201 440.656 527.265 440.696 527.281 440.776C527.313 440.84 527.313 440.912 527.281 440.992L522.913 449.224V453.688C522.913 453.896 522.809 454 522.601 454H519.985C519.777 454 519.673 453.896 519.673 453.688V449.128ZM531.673 451H535.393C536.513 451 537.073 451.528 537.073 452.584V453.592C537.073 453.864 536.945 454 536.689 454H528.721C528.513 454 528.409 453.896 528.409 453.688V440.992C528.409 440.768 528.513 440.656 528.721 440.656H535.201C536.321 440.656 536.881 441.192 536.881 442.264V443.272C536.881 443.544 536.753 443.68 536.497 443.68H531.673V445.744H534.745C535.865 445.744 536.425 446.28 536.425 447.352V448.312C536.425 448.568 536.297 448.696 536.041 448.696H531.673V451ZM541.481 443.656H538.049C537.841 443.656 537.737 443.56 537.737 443.368V440.992C537.737 440.768 537.841 440.656 538.049 440.656H546.929C547.489 440.656 547.905 440.8 548.177 441.088C548.449 441.376 548.585 441.776 548.585 442.288V443.248C548.585 443.52 548.465 443.656 548.225 443.656H544.721V453.688C544.721 453.896 544.617 454 544.409 454H541.793C541.585 454 541.481 453.896 541.481 453.688V443.656ZM551.583 445.576L549.591 445.072C549.399 445.024 549.335 444.896 549.399 444.688L549.999 442.792C550.063 442.584 550.191 442.512 550.383 442.576L552.279 443.344L552.135 441.304C552.119 441.096 552.231 440.992 552.471 440.992H554.463C554.687 440.992 554.791 441.096 554.775 441.304L554.631 443.344L556.527 442.576C556.719 442.512 556.847 442.584 556.911 442.792L557.535 444.688C557.599 444.896 557.535 445.024 557.343 445.072L555.327 445.576L556.599 447.184C556.711 447.328 556.687 447.456 556.527 447.568L554.919 448.768C554.759 448.88 554.623 448.856 554.511 448.696L553.455 447.064L552.423 448.696C552.311 448.856 552.175 448.88 552.015 448.768L550.383 447.568C550.223 447.456 550.207 447.328 550.335 447.184L551.583 445.576Z" fill="white"/>
</g>
</svg>
