<svg width="1920" height="163" viewBox="0 0 1920 163" fill="none" xmlns="http://www.w3.org/2000/svg">
<rect width="1920" height="160" fill="black"/>
<path d="M1050.41 86.04L1056.02 66.888C1056.09 66.728 1056.17 66.6 1056.26 66.504C1056.36 66.376 1056.5 66.312 1056.7 66.312H1059.38C1060.31 66.312 1061.08 66.584 1061.69 67.128C1062.33 67.672 1062.66 68.408 1062.7 69.336L1063.94 92.472C1063.94 92.824 1063.83 93 1063.61 93H1059.82C1059.5 93 1059.34 92.824 1059.34 92.472L1058.33 73.752L1052.71 92.472C1052.65 92.824 1052.44 93 1052.09 93H1048.54C1048.31 93 1048.1 92.824 1047.91 92.472L1042.54 73.896L1041.53 92.472C1041.53 92.824 1041.38 93 1041.1 93H1037.35C1037.06 93 1036.92 92.824 1036.92 92.472L1038.36 66.888C1038.36 66.504 1038.52 66.312 1038.84 66.312H1041.58C1042.6 66.312 1043.42 66.472 1044.02 66.792C1044.63 67.112 1045.06 67.736 1045.32 68.664L1050.41 86.04ZM1081.16 90.744C1080.52 91.608 1079.7 92.28 1078.71 92.76C1077.72 93.208 1076.66 93.432 1075.54 93.432C1073.75 93.432 1072.23 93 1070.98 92.136C1069.77 91.272 1068.84 90.12 1068.2 88.68C1067.59 87.24 1067.29 85.656 1067.29 83.928C1067.29 82.136 1067.62 80.536 1068.3 79.128C1068.97 77.688 1069.93 76.552 1071.18 75.72C1072.46 74.888 1073.94 74.472 1075.64 74.472C1077.05 74.472 1078.23 74.728 1079.19 75.24C1080.18 75.752 1080.97 76.36 1081.54 77.064C1081.8 76.328 1082.22 75.8 1082.79 75.48C1083.4 75.128 1084.12 74.952 1084.95 74.952H1085.19C1085.54 74.952 1085.72 75.144 1085.72 75.528V92.472C1085.72 92.824 1085.54 93 1085.19 93H1081.64C1081.32 93 1081.16 92.824 1081.16 92.472V90.744ZM1076.55 89.112C1077.16 89.112 1077.82 88.984 1078.52 88.728C1079.26 88.44 1079.88 87.928 1080.39 87.192C1080.9 86.456 1081.16 85.368 1081.16 83.928C1081.16 82.488 1080.9 81.416 1080.39 80.712C1079.88 79.976 1079.27 79.496 1078.57 79.272C1077.86 79.016 1077.21 78.888 1076.6 78.888C1075.96 78.888 1075.27 79.032 1074.54 79.32C1073.83 79.608 1073.22 80.12 1072.71 80.856C1072.23 81.592 1071.99 82.616 1071.99 83.928C1071.99 85.304 1072.25 86.376 1072.76 87.144C1073.3 87.88 1073.93 88.392 1074.63 88.68C1075.34 88.968 1075.98 89.112 1076.55 89.112ZM1103.38 77.016V66.888C1103.38 66.504 1103.55 66.312 1103.91 66.312H1104.15C1105.39 66.312 1106.34 66.632 1106.98 67.272C1107.65 67.88 1107.99 68.904 1107.99 70.344V92.472C1107.99 92.824 1107.83 93 1107.51 93H1103.91C1103.55 93 1103.38 92.824 1103.38 92.472V90.744C1102.03 92.536 1100.16 93.432 1097.76 93.432C1095.97 93.432 1094.45 93 1093.2 92.136C1091.99 91.272 1091.06 90.12 1090.42 88.68C1089.81 87.24 1089.51 85.656 1089.51 83.928C1089.51 82.136 1089.84 80.536 1090.51 79.128C1091.19 77.688 1092.16 76.552 1093.44 75.72C1094.72 74.888 1096.26 74.472 1098.05 74.472C1099.27 74.472 1100.32 74.696 1101.22 75.144C1102.15 75.592 1102.87 76.216 1103.38 77.016ZM1098.82 89.112C1099.43 89.112 1100.08 88.984 1100.79 88.728C1101.49 88.44 1102.1 87.928 1102.61 87.192C1103.12 86.456 1103.38 85.368 1103.38 83.928C1103.38 82.488 1103.12 81.416 1102.61 80.712C1102.1 79.976 1101.49 79.496 1100.79 79.272C1100.08 79.016 1099.44 78.888 1098.87 78.888C1098.23 78.888 1097.54 79.032 1096.8 79.32C1096.07 79.608 1095.44 80.12 1094.93 80.856C1094.45 81.56 1094.21 82.584 1094.21 83.928C1094.21 85.304 1094.47 86.376 1094.98 87.144C1095.52 87.88 1096.15 88.392 1096.85 88.68C1097.59 88.968 1098.24 89.112 1098.82 89.112ZM1116.33 85.608C1116.49 86.888 1117.05 87.864 1118.01 88.536C1118.97 89.208 1120.19 89.544 1121.66 89.544C1122.88 89.544 1123.88 89.416 1124.68 89.16C1125.48 88.904 1126.28 88.552 1127.08 88.104C1127.37 87.912 1127.63 87.816 1127.85 87.816C1128.2 87.816 1128.38 88.04 1128.38 88.488C1128.38 89.16 1128.12 89.88 1127.61 90.648C1127.13 91.416 1126.36 92.088 1125.31 92.664C1124.25 93.208 1122.84 93.48 1121.08 93.48C1119.36 93.48 1117.77 93.128 1116.33 92.424C1114.92 91.688 1113.8 90.616 1112.97 89.208C1112.14 87.768 1111.72 86.008 1111.72 83.928C1111.72 82.104 1112.08 80.488 1112.78 79.08C1113.52 77.672 1114.54 76.568 1115.85 75.768C1117.2 74.968 1118.76 74.568 1120.56 74.568C1122.48 74.568 1124.03 74.968 1125.21 75.768C1126.43 76.536 1127.31 77.544 1127.85 78.792C1128.43 80.04 1128.72 81.368 1128.72 82.776C1128.72 83.256 1128.7 83.688 1128.67 84.072C1128.67 84.424 1128.65 84.728 1128.62 84.984C1128.59 85.4 1128.32 85.608 1127.8 85.608H1116.33ZM1116.33 82.296H1124.11C1124.17 81.752 1124.11 81.192 1123.92 80.616C1123.76 80.008 1123.4 79.496 1122.86 79.08C1122.32 78.664 1121.55 78.456 1120.56 78.456C1119.34 78.456 1118.36 78.808 1117.63 79.512C1116.92 80.184 1116.49 81.112 1116.33 82.296ZM1144.47 90.792V92.472C1144.47 92.824 1144.31 93 1143.99 93H1140.39C1140.1 93 1139.96 92.824 1139.96 92.472V66.888C1139.96 66.504 1140.1 66.312 1140.39 66.312H1140.63C1141.88 66.312 1142.82 66.632 1143.46 67.272C1144.14 67.88 1144.47 68.904 1144.47 70.344V77.256C1145.02 76.456 1145.75 75.8 1146.68 75.288C1147.64 74.744 1148.79 74.472 1150.14 74.472C1152.66 74.472 1154.66 75.336 1156.14 77.064C1157.61 78.76 1158.34 81.048 1158.34 83.928C1158.34 85.656 1158.02 87.24 1157.38 88.68C1156.78 90.12 1155.86 91.272 1154.65 92.136C1153.43 93 1151.93 93.432 1150.14 93.432C1147.7 93.432 1145.82 92.552 1144.47 90.792ZM1149.03 89.112C1149.64 89.112 1150.3 88.968 1151 88.68C1151.7 88.392 1152.31 87.88 1152.82 87.144C1153.34 86.376 1153.59 85.304 1153.59 83.928C1153.59 82.584 1153.34 81.56 1152.82 80.856C1152.34 80.12 1151.75 79.608 1151.05 79.32C1150.34 79.032 1149.67 78.888 1149.03 78.888C1148.46 78.888 1147.82 79.016 1147.11 79.272C1146.41 79.496 1145.78 79.976 1145.24 80.712C1144.73 81.416 1144.47 82.488 1144.47 83.928C1144.47 85.336 1144.73 86.424 1145.24 87.192C1145.78 87.928 1146.41 88.44 1147.11 88.728C1147.85 88.984 1148.49 89.112 1149.03 89.112ZM1166.55 93.432L1160.12 75.528C1160.09 75.4 1160.09 75.272 1160.12 75.144C1160.19 75.016 1160.28 74.952 1160.41 74.952H1161.42C1162.73 74.952 1163.69 75.224 1164.3 75.768C1164.94 76.312 1165.53 77.336 1166.07 78.84L1169.05 87.768L1173.08 75.576C1173.27 75.16 1173.53 74.952 1173.85 74.952H1177.4C1177.56 74.952 1177.66 75.016 1177.69 75.144C1177.72 75.272 1177.72 75.4 1177.69 75.528L1171.45 93.048C1170.91 94.616 1170.31 96.008 1169.67 97.224C1169.07 98.472 1168.31 99.448 1167.42 100.152C1166.52 100.856 1165.39 101.208 1164.01 101.208C1162.99 101.208 1162.12 100.984 1161.42 100.536C1160.71 100.12 1160.19 99.576 1159.83 98.904C1159.48 98.232 1159.31 97.576 1159.31 96.936C1159.31 96.712 1159.35 96.504 1159.45 96.312C1159.55 96.12 1159.69 96.024 1159.88 96.024C1159.95 96.024 1160.01 96.04 1160.07 96.072C1160.17 96.136 1160.25 96.2 1160.31 96.264C1161.18 96.904 1162.04 97.224 1162.91 97.224C1163.8 97.224 1164.51 96.936 1165.02 96.36C1165.53 95.816 1166.04 94.84 1166.55 93.432ZM1182.96 77.208C1183.79 77.208 1184.48 77.496 1185.02 78.072C1185.6 78.648 1185.88 79.352 1185.88 80.184C1185.88 80.984 1185.6 81.688 1185.02 82.296C1184.48 82.872 1183.79 83.16 1182.96 83.16C1182.16 83.16 1181.47 82.872 1180.89 82.296C1180.32 81.688 1180.03 80.984 1180.03 80.184C1180.03 79.352 1180.32 78.648 1180.89 78.072C1181.47 77.496 1182.16 77.208 1182.96 77.208ZM1182.96 87.624C1183.79 87.624 1184.48 87.928 1185.02 88.536C1185.6 89.112 1185.88 89.816 1185.88 90.648C1185.88 91.448 1185.6 92.152 1185.02 92.76C1184.48 93.336 1183.79 93.624 1182.96 93.624C1182.16 93.624 1181.47 93.336 1180.89 92.76C1180.32 92.152 1180.03 91.448 1180.03 90.648C1180.03 89.816 1180.32 89.112 1180.89 88.536C1181.47 87.928 1182.16 87.624 1182.96 87.624ZM1205.63 87L1210.58 66.984C1210.67 66.536 1210.91 66.312 1211.3 66.312H1212.64C1213.76 66.312 1214.64 66.536 1215.28 66.984C1215.92 67.432 1216.42 68.392 1216.77 69.864L1221.04 87L1225.65 66.984C1225.81 66.536 1226.05 66.312 1226.37 66.312H1230.11C1230.43 66.312 1230.55 66.504 1230.45 66.888L1223.97 92.472C1223.87 92.824 1223.68 93 1223.39 93H1219.12C1218.83 93 1218.61 92.824 1218.45 92.472L1213.17 72.936L1208.08 92.472C1207.92 92.824 1207.7 93 1207.41 93H1203.19C1202.83 93 1202.61 92.824 1202.51 92.472L1196.27 66.936C1196.24 66.776 1196.24 66.632 1196.27 66.504C1196.34 66.376 1196.47 66.312 1196.66 66.312H1197.62C1198.71 66.312 1199.59 66.536 1200.26 66.984C1200.96 67.432 1201.47 68.392 1201.79 69.864L1205.63 87ZM1233.28 70.248C1233.28 69.48 1233.52 68.856 1234 68.376C1234.51 67.864 1235.13 67.608 1235.87 67.608C1236.61 67.608 1237.21 67.864 1237.69 68.376C1238.21 68.856 1238.46 69.48 1238.46 70.248C1238.46 70.984 1238.21 71.608 1237.69 72.12C1237.21 72.632 1236.61 72.888 1235.87 72.888C1235.13 72.888 1234.51 72.632 1234 72.12C1233.52 71.608 1233.28 70.984 1233.28 70.248ZM1234.09 93C1233.77 93 1233.61 92.824 1233.61 92.472V75.528C1233.61 75.144 1233.77 74.952 1234.09 74.952H1234.33C1235.55 74.952 1236.49 75.272 1237.17 75.912C1237.84 76.552 1238.17 77.592 1238.17 79.032V92.472C1238.17 92.824 1238 93 1237.65 93H1234.09ZM1247.27 87.096V92.472C1247.27 92.824 1247.11 93 1246.79 93H1243.19C1242.9 93 1242.76 92.824 1242.76 92.472V66.888C1242.76 66.504 1242.9 66.312 1243.19 66.312H1243.43C1244.68 66.312 1245.62 66.632 1246.26 67.272C1246.93 67.88 1247.27 68.904 1247.27 70.344V81.48L1252.88 75.576C1253.17 75.16 1253.51 74.952 1253.89 74.952H1257.92C1258.08 74.952 1258.18 75.032 1258.21 75.192C1258.24 75.32 1258.23 75.432 1258.16 75.528L1252.5 81.528L1258.88 92.472C1258.95 92.6 1258.95 92.728 1258.88 92.856C1258.82 92.952 1258.71 93 1258.55 93H1254.61C1254.1 93 1253.76 92.808 1253.6 92.424L1249.33 84.936L1247.27 87.096ZM1263.71 79.128H1260.54C1260.19 79.128 1260.02 78.936 1260.02 78.552V75.528C1260.02 75.144 1260.19 74.952 1260.54 74.952H1263.71V69.144C1263.71 68.792 1263.87 68.616 1264.19 68.616H1264.43C1265.68 68.616 1266.62 68.936 1267.26 69.576C1267.94 70.216 1268.27 71.24 1268.27 72.648V74.952H1272.16C1272.45 74.952 1272.59 75.144 1272.59 75.528V78.552C1272.59 78.936 1272.45 79.128 1272.16 79.128H1268.27V92.472C1268.27 92.824 1268.11 93 1267.79 93H1264.19C1263.87 93 1263.71 92.824 1263.71 92.472V79.128ZM1284.11 93.48C1281.3 93.48 1279.04 92.616 1277.35 90.888C1275.68 89.16 1274.85 86.856 1274.85 83.976C1274.85 81.128 1275.68 78.856 1277.35 77.16C1279.01 75.432 1281.25 74.568 1284.07 74.568C1286.88 74.568 1289.12 75.432 1290.79 77.16C1292.45 78.856 1293.28 81.128 1293.28 83.976C1293.28 86.824 1292.47 89.128 1290.83 90.888C1289.2 92.616 1286.96 93.48 1284.11 93.48ZM1284.07 89.112C1285.28 89.112 1286.34 88.728 1287.23 87.96C1288.13 87.16 1288.58 85.864 1288.58 84.072C1288.58 82.28 1288.13 80.968 1287.23 80.136C1286.34 79.304 1285.28 78.888 1284.07 78.888C1282.82 78.888 1281.75 79.304 1280.85 80.136C1279.99 80.936 1279.55 82.232 1279.55 84.024C1279.55 85.816 1279.99 87.112 1280.85 87.912C1281.75 88.712 1282.82 89.112 1284.07 89.112ZM1301.55 77.592C1302.09 76.568 1302.75 75.88 1303.51 75.528C1304.28 75.144 1305.32 74.952 1306.63 74.952H1307.16C1307.48 74.952 1307.64 75.144 1307.64 75.528V78.792C1307.64 79.176 1307.48 79.368 1307.16 79.368H1305.91C1304.15 79.368 1303 79.816 1302.46 80.712C1301.95 81.576 1301.69 82.856 1301.69 84.552V92.472C1301.69 92.824 1301.53 93 1301.21 93H1297.61C1297.32 93 1297.18 92.824 1297.18 92.472V75.528C1297.18 75.144 1297.32 74.952 1297.61 74.952H1297.85C1299.93 74.952 1301.16 75.832 1301.55 77.592ZM1331.7 86.04L1337.32 66.888C1337.38 66.728 1337.46 66.6 1337.56 66.504C1337.66 66.376 1337.8 66.312 1337.99 66.312H1340.68C1341.61 66.312 1342.38 66.584 1342.98 67.128C1343.62 67.672 1343.96 68.408 1343.99 69.336L1345.24 92.472C1345.24 92.824 1345.13 93 1344.9 93H1341.11C1340.79 93 1340.63 92.824 1340.63 92.472L1339.62 73.752L1334.01 92.472C1333.94 92.824 1333.74 93 1333.38 93H1329.83C1329.61 93 1329.4 92.824 1329.21 92.472L1323.83 73.896L1322.82 92.472C1322.82 92.824 1322.68 93 1322.39 93H1318.65C1318.36 93 1318.22 92.824 1318.22 92.472L1319.66 66.888C1319.66 66.504 1319.82 66.312 1320.14 66.312H1322.87C1323.9 66.312 1324.71 66.472 1325.32 66.792C1325.93 67.112 1326.36 67.736 1326.62 68.664L1331.7 86.04ZM1357.99 93.48C1355.17 93.48 1352.92 92.616 1351.22 90.888C1349.56 89.16 1348.72 86.856 1348.72 83.976C1348.72 81.128 1349.56 78.856 1351.22 77.16C1352.88 75.432 1355.12 74.568 1357.94 74.568C1360.76 74.568 1363 75.432 1364.66 77.16C1366.32 78.856 1367.16 81.128 1367.16 83.976C1367.16 86.824 1366.34 89.128 1364.71 90.888C1363.08 92.616 1360.84 93.48 1357.99 93.48ZM1357.94 89.112C1359.16 89.112 1360.21 88.728 1361.11 87.96C1362 87.16 1362.45 85.864 1362.45 84.072C1362.45 82.28 1362 80.968 1361.11 80.136C1360.21 79.304 1359.16 78.888 1357.94 78.888C1356.69 78.888 1355.62 79.304 1354.72 80.136C1353.86 80.936 1353.43 82.232 1353.43 84.024C1353.43 85.816 1353.86 87.112 1354.72 87.912C1355.62 88.712 1356.69 89.112 1357.94 89.112ZM1375.42 77.592C1375.96 76.568 1376.62 75.88 1377.39 75.528C1378.16 75.144 1379.2 74.952 1380.51 74.952H1381.04C1381.36 74.952 1381.52 75.144 1381.52 75.528V78.792C1381.52 79.176 1381.36 79.368 1381.04 79.368H1379.79C1378.03 79.368 1376.88 79.816 1376.33 80.712C1375.82 81.576 1375.56 82.856 1375.56 84.552V92.472C1375.56 92.824 1375.4 93 1375.08 93H1371.48C1371.2 93 1371.05 92.824 1371.05 92.472V75.528C1371.05 75.144 1371.2 74.952 1371.48 74.952H1371.72C1373.8 74.952 1375.04 75.832 1375.42 77.592ZM1397.75 90.744C1397.11 91.608 1396.3 92.28 1395.3 92.76C1394.31 93.208 1393.26 93.432 1392.14 93.432C1390.34 93.432 1388.82 93 1387.58 92.136C1386.36 91.272 1385.43 90.12 1384.79 88.68C1384.18 87.24 1383.88 85.656 1383.88 83.928C1383.88 82.136 1384.22 80.536 1384.89 79.128C1385.56 77.688 1386.52 76.552 1387.77 75.72C1389.05 74.888 1390.54 74.472 1392.23 74.472C1393.64 74.472 1394.82 74.728 1395.78 75.24C1396.78 75.752 1397.56 76.36 1398.14 77.064C1398.39 76.328 1398.81 75.8 1399.38 75.48C1399.99 75.128 1400.71 74.952 1401.54 74.952H1401.78C1402.14 74.952 1402.31 75.144 1402.31 75.528V92.472C1402.31 92.824 1402.14 93 1401.78 93H1398.23C1397.91 93 1397.75 92.824 1397.75 92.472V90.744ZM1393.14 89.112C1393.75 89.112 1394.41 88.984 1395.11 88.728C1395.85 88.44 1396.47 87.928 1396.98 87.192C1397.5 86.456 1397.75 85.368 1397.75 83.928C1397.75 82.488 1397.5 81.416 1396.98 80.712C1396.47 79.976 1395.86 79.496 1395.16 79.272C1394.46 79.016 1393.8 78.888 1393.19 78.888C1392.55 78.888 1391.86 79.032 1391.13 79.32C1390.42 79.608 1389.82 80.12 1389.3 80.856C1388.82 81.592 1388.58 82.616 1388.58 83.928C1388.58 85.304 1388.84 86.376 1389.35 87.144C1389.9 87.88 1390.52 88.392 1391.22 88.68C1391.93 88.968 1392.57 89.112 1393.14 89.112ZM1413.2 87.432L1416.56 75.576C1416.69 75.16 1416.95 74.952 1417.33 74.952H1417.81C1419.12 74.952 1420.1 75.224 1420.74 75.768C1421.41 76.28 1421.96 77.32 1422.37 78.888L1424.77 87.48L1428.13 75.576C1428.26 75.16 1428.53 74.952 1428.95 74.952H1432.02C1432.37 74.952 1432.5 75.144 1432.4 75.528L1427.27 92.472C1427.17 92.824 1426.95 93 1426.6 93H1423C1422.68 93 1422.45 92.824 1422.32 92.472L1418.92 80.904L1415.56 92.472C1415.43 92.824 1415.2 93 1414.88 93H1411.19C1410.84 93 1410.61 92.824 1410.52 92.472L1405.24 75.528C1405.2 75.4 1405.22 75.272 1405.28 75.144C1405.38 75.016 1405.49 74.952 1405.62 74.952H1406.34C1407.65 74.952 1408.63 75.224 1409.27 75.768C1409.94 76.312 1410.47 77.352 1410.85 78.888L1413.2 87.432ZM1434.84 87.768C1435.58 88.376 1436.34 88.856 1437.14 89.208C1437.98 89.56 1438.97 89.736 1440.12 89.736C1442.07 89.736 1443.05 89.112 1443.05 87.864C1443.05 87.32 1442.74 86.888 1442.14 86.568C1441.56 86.248 1440.84 85.944 1439.98 85.656C1439.14 85.368 1438.3 85.016 1437.43 84.6C1436.57 84.184 1435.83 83.64 1435.22 82.968C1434.65 82.264 1434.36 81.32 1434.36 80.136C1434.36 78.824 1434.68 77.768 1435.32 76.968C1435.99 76.136 1436.86 75.528 1437.91 75.144C1439 74.76 1440.15 74.568 1441.37 74.568C1442.87 74.568 1444.12 74.808 1445.11 75.288C1445.94 75.64 1446.49 76.072 1446.74 76.584C1447 77.064 1447 77.752 1446.74 78.648L1446.6 79.176C1446.5 79.432 1446.38 79.56 1446.22 79.56C1446.12 79.56 1446.04 79.544 1445.98 79.512C1445.91 79.448 1445.82 79.4 1445.69 79.368C1444.18 78.632 1442.71 78.264 1441.27 78.264C1440.63 78.264 1440.09 78.392 1439.64 78.648C1439.19 78.904 1438.97 79.304 1438.97 79.848C1438.97 80.392 1439.26 80.84 1439.83 81.192C1440.44 81.512 1441.16 81.816 1441.99 82.104C1442.86 82.392 1443.72 82.744 1444.58 83.16C1445.45 83.576 1446.17 84.12 1446.74 84.792C1447.35 85.464 1447.66 86.36 1447.66 87.48C1447.66 89.272 1447.02 90.728 1445.74 91.848C1444.46 92.936 1442.76 93.48 1440.65 93.48C1439.3 93.48 1438.12 93.256 1437.1 92.808C1436.1 92.328 1435.32 91.704 1434.74 90.936C1434.17 90.168 1433.88 89.368 1433.88 88.536C1433.88 87.896 1434.07 87.576 1434.46 87.576C1434.58 87.576 1434.71 87.64 1434.84 87.768ZM1455.35 87.096V92.472C1455.35 92.824 1455.19 93 1454.87 93H1451.27C1450.98 93 1450.83 92.824 1450.83 92.472V66.888C1450.83 66.504 1450.98 66.312 1451.27 66.312H1451.51C1452.75 66.312 1453.7 66.632 1454.34 67.272C1455.01 67.88 1455.35 68.904 1455.35 70.344V81.48L1460.96 75.576C1461.25 75.16 1461.59 74.952 1461.97 74.952H1466C1466.16 74.952 1466.26 75.032 1466.29 75.192C1466.32 75.32 1466.31 75.432 1466.24 75.528L1460.58 81.528L1466.96 92.472C1467.03 92.6 1467.03 92.728 1466.96 92.856C1466.9 92.952 1466.79 93 1466.63 93H1462.69C1462.18 93 1461.84 92.808 1461.68 92.424L1457.41 84.936L1455.35 87.096ZM1469.29 70.248C1469.29 69.48 1469.53 68.856 1470.01 68.376C1470.53 67.864 1471.15 67.608 1471.89 67.608C1472.62 67.608 1473.23 67.864 1473.71 68.376C1474.22 68.856 1474.48 69.48 1474.48 70.248C1474.48 70.984 1474.22 71.608 1473.71 72.12C1473.23 72.632 1472.62 72.888 1471.89 72.888C1471.15 72.888 1470.53 72.632 1470.01 72.12C1469.53 71.608 1469.29 70.984 1469.29 70.248ZM1470.11 93C1469.79 93 1469.63 92.824 1469.63 92.472V75.528C1469.63 75.144 1469.79 74.952 1470.11 74.952H1470.35C1471.57 74.952 1472.51 75.272 1473.18 75.912C1473.85 76.552 1474.19 77.592 1474.19 79.032V92.472C1474.19 92.824 1474.01 93 1473.66 93H1470.11ZM1499.47 90.744C1498.83 91.608 1498.02 92.28 1497.02 92.76C1496.03 93.208 1494.98 93.432 1493.86 93.432C1492.06 93.432 1490.54 93 1489.3 92.136C1488.08 91.272 1487.15 90.12 1486.51 88.68C1485.9 87.24 1485.6 85.656 1485.6 83.928C1485.6 82.136 1485.94 80.536 1486.61 79.128C1487.28 77.688 1488.24 76.552 1489.49 75.72C1490.77 74.888 1492.26 74.472 1493.95 74.472C1495.36 74.472 1496.54 74.728 1497.5 75.24C1498.5 75.752 1499.28 76.36 1499.86 77.064C1500.11 76.328 1500.53 75.8 1501.1 75.48C1501.71 75.128 1502.43 74.952 1503.26 74.952H1503.5C1503.86 74.952 1504.03 75.144 1504.03 75.528V92.472C1504.03 92.824 1503.86 93 1503.5 93H1499.95C1499.63 93 1499.47 92.824 1499.47 92.472V90.744ZM1494.86 89.112C1495.47 89.112 1496.13 88.984 1496.83 88.728C1497.57 88.44 1498.19 87.928 1498.7 87.192C1499.22 86.456 1499.47 85.368 1499.47 83.928C1499.47 82.488 1499.22 81.416 1498.7 80.712C1498.19 79.976 1497.58 79.496 1496.88 79.272C1496.18 79.016 1495.52 78.888 1494.91 78.888C1494.27 78.888 1493.58 79.032 1492.85 79.32C1492.14 79.608 1491.54 80.12 1491.02 80.856C1490.54 81.592 1490.3 82.616 1490.3 83.928C1490.3 85.304 1490.56 86.376 1491.07 87.144C1491.62 87.88 1492.24 88.392 1492.94 88.68C1493.65 88.968 1494.29 89.112 1494.86 89.112ZM1512.76 77.304C1513.37 76.472 1514.14 75.816 1515.07 75.336C1516.03 74.856 1517.07 74.616 1518.19 74.616C1520.46 74.616 1522.23 75.288 1523.51 76.632C1524.83 77.976 1525.48 79.976 1525.48 82.632V92.472C1525.48 92.824 1525.31 93 1524.95 93H1521.4C1521.05 93 1520.87 92.824 1520.87 92.472V83.208C1520.87 81.64 1520.51 80.52 1519.77 79.848C1519.03 79.176 1518.11 78.84 1516.99 78.84C1515.87 78.84 1514.94 79.192 1514.2 79.896C1513.47 80.568 1513.1 81.704 1513.1 83.304V92.472C1513.1 92.824 1512.91 93 1512.52 93H1509.02C1508.67 93 1508.49 92.824 1508.49 92.472V75.528C1508.49 75.144 1508.67 74.952 1509.02 74.952H1509.26C1510.19 74.952 1510.95 75.16 1511.56 75.576C1512.17 75.96 1512.57 76.536 1512.76 77.304ZM1543.07 77.016V66.888C1543.07 66.504 1543.24 66.312 1543.59 66.312H1543.83C1545.08 66.312 1546.03 66.632 1546.67 67.272C1547.34 67.88 1547.67 68.904 1547.67 70.344V92.472C1547.67 92.824 1547.51 93 1547.19 93H1543.59C1543.24 93 1543.07 92.824 1543.07 92.472V90.744C1541.72 92.536 1539.85 93.432 1537.45 93.432C1535.66 93.432 1534.14 93 1532.89 92.136C1531.67 91.272 1530.75 90.12 1530.11 88.68C1529.5 87.24 1529.19 85.656 1529.19 83.928C1529.19 82.136 1529.53 80.536 1530.2 79.128C1530.87 77.688 1531.85 76.552 1533.13 75.72C1534.41 74.888 1535.95 74.472 1537.74 74.472C1538.95 74.472 1540.01 74.696 1540.91 75.144C1541.83 75.592 1542.55 76.216 1543.07 77.016ZM1538.51 89.112C1539.11 89.112 1539.77 88.984 1540.47 88.728C1541.18 88.44 1541.79 87.928 1542.3 87.192C1542.81 86.456 1543.07 85.368 1543.07 83.928C1543.07 82.488 1542.81 81.416 1542.3 80.712C1541.79 79.976 1541.18 79.496 1540.47 79.272C1539.77 79.016 1539.13 78.888 1538.55 78.888C1537.91 78.888 1537.23 79.032 1536.49 79.32C1535.75 79.608 1535.13 80.12 1534.62 80.856C1534.14 81.56 1533.9 82.584 1533.9 83.928C1533.9 85.304 1534.15 86.376 1534.67 87.144C1535.21 87.88 1535.83 88.392 1536.54 88.68C1537.27 88.968 1537.93 89.112 1538.51 89.112ZM1575.24 87L1580.19 66.984C1580.28 66.536 1580.52 66.312 1580.91 66.312H1582.25C1583.37 66.312 1584.25 66.536 1584.89 66.984C1585.53 67.432 1586.03 68.392 1586.38 69.864L1590.65 87L1595.26 66.984C1595.42 66.536 1595.66 66.312 1595.98 66.312H1599.72C1600.04 66.312 1600.16 66.504 1600.06 66.888L1593.58 92.472C1593.48 92.824 1593.29 93 1593 93H1588.73C1588.44 93 1588.22 92.824 1588.06 92.472L1582.78 72.936L1577.69 92.472C1577.53 92.824 1577.31 93 1577.02 93H1572.8C1572.44 93 1572.22 92.824 1572.12 92.472L1565.88 66.936C1565.85 66.776 1565.85 66.632 1565.88 66.504C1565.95 66.376 1566.08 66.312 1566.27 66.312H1567.23C1568.32 66.312 1569.2 66.536 1569.87 66.984C1570.57 67.432 1571.08 68.392 1571.4 69.864L1575.24 87ZM1610.79 93.48C1607.97 93.48 1605.71 92.616 1604.02 90.888C1602.35 89.16 1601.52 86.856 1601.52 83.976C1601.52 81.128 1602.35 78.856 1604.02 77.16C1605.68 75.432 1607.92 74.568 1610.74 74.568C1613.55 74.568 1615.79 75.432 1617.46 77.16C1619.12 78.856 1619.95 81.128 1619.95 83.976C1619.95 86.824 1619.14 89.128 1617.51 90.888C1615.87 92.616 1613.63 93.48 1610.79 93.48ZM1610.74 89.112C1611.95 89.112 1613.01 88.728 1613.91 87.96C1614.8 87.16 1615.25 85.864 1615.25 84.072C1615.25 82.28 1614.8 80.968 1613.91 80.136C1613.01 79.304 1611.95 78.888 1610.74 78.888C1609.49 78.888 1608.42 79.304 1607.52 80.136C1606.66 80.936 1606.23 82.232 1606.23 84.024C1606.23 85.816 1606.66 87.112 1607.52 87.912C1608.42 88.712 1609.49 89.112 1610.74 89.112ZM1623.51 70.296C1623.51 69.496 1623.77 68.856 1624.28 68.376C1624.79 67.864 1625.4 67.608 1626.11 67.608C1626.84 67.608 1627.45 67.864 1627.93 68.376C1628.44 68.856 1628.7 69.496 1628.7 70.296C1628.7 71 1628.44 71.608 1627.93 72.12C1627.45 72.632 1626.84 72.888 1626.11 72.888C1625.4 72.888 1624.79 72.632 1624.28 72.12C1623.77 71.608 1623.51 71 1623.51 70.296ZM1618.28 97.08C1618.28 96.504 1618.46 96.216 1618.81 96.216C1618.97 96.216 1619.11 96.264 1619.24 96.36C1619.69 96.616 1620.11 96.824 1620.49 96.984C1620.87 97.176 1621.29 97.272 1621.74 97.272C1622.54 97.272 1623.08 97.016 1623.37 96.504C1623.69 96.024 1623.85 95.256 1623.85 94.2V75.528C1623.85 75.144 1624.01 74.952 1624.33 74.952H1624.57C1625.79 74.952 1626.73 75.272 1627.4 75.912C1628.07 76.552 1628.41 77.592 1628.41 79.032V94.536C1628.41 96.776 1627.95 98.44 1627.02 99.528C1626.09 100.648 1624.83 101.208 1623.23 101.208C1622.11 101.208 1621.18 100.984 1620.44 100.536C1619.71 100.088 1619.16 99.528 1618.81 98.856C1618.46 98.216 1618.28 97.624 1618.28 97.08ZM1646.29 88.008C1646.51 87.784 1646.7 87.672 1646.86 87.672C1647.22 87.672 1647.39 87.928 1647.39 88.44C1647.39 89.08 1647.2 89.8 1646.82 90.6C1646.43 91.4 1645.78 92.088 1644.85 92.664C1643.95 93.208 1642.7 93.48 1641.1 93.48C1638.42 93.48 1636.27 92.648 1634.67 90.984C1633.07 89.288 1632.27 86.952 1632.27 83.976C1632.27 81.064 1633.1 78.776 1634.77 77.112C1636.46 75.416 1638.67 74.568 1641.39 74.568C1642.1 74.568 1642.75 74.616 1643.36 74.712C1644 74.776 1644.59 74.92 1645.14 75.144C1645.97 75.464 1646.51 75.896 1646.77 76.44C1647.02 76.952 1647.02 77.656 1646.77 78.552L1646.48 79.608C1646.38 79.864 1646.26 79.992 1646.1 79.992C1645.97 79.992 1645.82 79.944 1645.66 79.848C1644.93 79.496 1644.27 79.256 1643.7 79.128C1643.12 78.968 1642.42 78.888 1641.58 78.888C1640.3 78.888 1639.22 79.32 1638.32 80.184C1637.42 81.016 1636.98 82.312 1636.98 84.072C1636.98 85.736 1637.41 87.048 1638.27 88.008C1639.14 88.968 1640.42 89.448 1642.11 89.448C1643.14 89.448 1643.98 89.288 1644.66 88.968C1645.33 88.616 1645.87 88.296 1646.29 88.008ZM1650 70.248C1650 69.48 1650.24 68.856 1650.72 68.376C1651.23 67.864 1651.85 67.608 1652.59 67.608C1653.33 67.608 1653.93 67.864 1654.41 68.376C1654.93 68.856 1655.18 69.48 1655.18 70.248C1655.18 70.984 1654.93 71.608 1654.41 72.12C1653.93 72.632 1653.33 72.888 1652.59 72.888C1651.85 72.888 1651.23 72.632 1650.72 72.12C1650.24 71.608 1650 70.984 1650 70.248ZM1650.81 93C1650.49 93 1650.33 92.824 1650.33 92.472V75.528C1650.33 75.144 1650.49 74.952 1650.81 74.952H1651.05C1652.27 74.952 1653.21 75.272 1653.89 75.912C1654.56 76.552 1654.89 77.592 1654.89 79.032V92.472C1654.89 92.824 1654.72 93 1654.37 93H1650.81ZM1663.41 85.608C1663.57 86.888 1664.13 87.864 1665.09 88.536C1666.05 89.208 1667.27 89.544 1668.74 89.544C1669.95 89.544 1670.96 89.416 1671.76 89.16C1672.56 88.904 1673.36 88.552 1674.16 88.104C1674.45 87.912 1674.71 87.816 1674.93 87.816C1675.28 87.816 1675.46 88.04 1675.46 88.488C1675.46 89.16 1675.2 89.88 1674.69 90.648C1674.21 91.416 1673.44 92.088 1672.39 92.664C1671.33 93.208 1669.92 93.48 1668.16 93.48C1666.43 93.48 1664.85 93.128 1663.41 92.424C1662 91.688 1660.88 90.616 1660.05 89.208C1659.22 87.768 1658.8 86.008 1658.8 83.928C1658.8 82.104 1659.15 80.488 1659.86 79.08C1660.59 77.672 1661.62 76.568 1662.93 75.768C1664.27 74.968 1665.84 74.568 1667.63 74.568C1669.55 74.568 1671.11 74.968 1672.29 75.768C1673.51 76.536 1674.39 77.544 1674.93 78.792C1675.51 80.04 1675.79 81.368 1675.79 82.776C1675.79 83.256 1675.78 83.688 1675.75 84.072C1675.75 84.424 1675.73 84.728 1675.7 84.984C1675.67 85.4 1675.39 85.608 1674.88 85.608H1663.41ZM1663.41 82.296H1671.19C1671.25 81.752 1671.19 81.192 1670.99 80.616C1670.83 80.008 1670.48 79.496 1669.94 79.08C1669.39 78.664 1668.63 78.456 1667.63 78.456C1666.42 78.456 1665.44 78.808 1664.71 79.512C1664 80.184 1663.57 81.112 1663.41 82.296ZM1692.88 88.008C1693.11 87.784 1693.3 87.672 1693.46 87.672C1693.81 87.672 1693.99 87.928 1693.99 88.44C1693.99 89.08 1693.79 89.8 1693.41 90.6C1693.03 91.4 1692.37 92.088 1691.44 92.664C1690.55 93.208 1689.3 93.48 1687.7 93.48C1685.01 93.48 1682.87 92.648 1681.27 90.984C1679.67 89.288 1678.87 86.952 1678.87 83.976C1678.87 81.064 1679.7 78.776 1681.36 77.112C1683.06 75.416 1685.27 74.568 1687.99 74.568C1688.69 74.568 1689.35 74.616 1689.95 74.712C1690.59 74.776 1691.19 74.92 1691.73 75.144C1692.56 75.464 1693.11 75.896 1693.36 76.44C1693.62 76.952 1693.62 77.656 1693.36 78.552L1693.07 79.608C1692.98 79.864 1692.85 79.992 1692.69 79.992C1692.56 79.992 1692.42 79.944 1692.26 79.848C1691.52 79.496 1690.87 79.256 1690.29 79.128C1689.71 78.968 1689.01 78.888 1688.18 78.888C1686.9 78.888 1685.81 79.32 1684.91 80.184C1684.02 81.016 1683.57 82.312 1683.57 84.072C1683.57 85.736 1684 87.048 1684.87 88.008C1685.73 88.968 1687.01 89.448 1688.71 89.448C1689.73 89.448 1690.58 89.288 1691.25 88.968C1691.92 88.616 1692.47 88.296 1692.88 88.008ZM1701.49 76.872C1702.03 76.136 1702.73 75.56 1703.6 75.144C1704.46 74.696 1705.49 74.472 1706.67 74.472C1708.85 74.472 1710.59 75.16 1711.9 76.536C1713.25 77.88 1713.92 79.864 1713.92 82.488V92.472C1713.92 92.824 1713.74 93 1713.39 93H1709.84C1709.49 93 1709.31 92.824 1709.31 92.472V83.064C1709.31 81.496 1708.94 80.392 1708.21 79.752C1707.47 79.08 1706.56 78.744 1705.47 78.744C1704.32 78.744 1703.36 79.08 1702.59 79.752C1701.85 80.424 1701.49 81.576 1701.49 83.208V92.472C1701.49 92.824 1701.33 93 1701.01 93H1697.5C1697.15 93 1696.97 92.824 1696.97 92.472V66.888C1696.97 66.504 1697.15 66.312 1697.5 66.312H1697.74C1698.96 66.312 1699.89 66.632 1700.53 67.272C1701.17 67.88 1701.49 68.904 1701.49 70.344V76.872ZM1733.96 87L1738.91 66.984C1739 66.536 1739.24 66.312 1739.63 66.312H1740.97C1742.09 66.312 1742.97 66.536 1743.61 66.984C1744.25 67.432 1744.75 68.392 1745.1 69.864L1749.37 87L1753.98 66.984C1754.14 66.536 1754.38 66.312 1754.7 66.312H1758.44C1758.76 66.312 1758.87 66.504 1758.78 66.888L1752.3 92.472C1752.2 92.824 1752.01 93 1751.72 93H1747.45C1747.16 93 1746.94 92.824 1746.78 92.472L1741.5 72.936L1736.41 92.472C1736.25 92.824 1736.03 93 1735.74 93H1731.51C1731.16 93 1730.94 92.824 1730.84 92.472L1724.6 66.936C1724.57 66.776 1724.57 66.632 1724.6 66.504C1724.67 66.376 1724.79 66.312 1724.99 66.312H1725.95C1727.03 66.312 1727.91 66.536 1728.59 66.984C1729.29 67.432 1729.8 68.392 1730.12 69.864L1733.96 87ZM1774.07 90.744C1773.43 91.608 1772.61 92.28 1771.62 92.76C1770.63 93.208 1769.57 93.432 1768.45 93.432C1766.66 93.432 1765.14 93 1763.89 92.136C1762.67 91.272 1761.75 90.12 1761.11 88.68C1760.5 87.24 1760.19 85.656 1760.19 83.928C1760.19 82.136 1760.53 80.536 1761.2 79.128C1761.87 77.688 1762.83 76.552 1764.08 75.72C1765.36 74.888 1766.85 74.472 1768.55 74.472C1769.95 74.472 1771.14 74.728 1772.1 75.24C1773.09 75.752 1773.87 76.36 1774.45 77.064C1774.71 76.328 1775.12 75.8 1775.7 75.48C1776.31 75.128 1777.03 74.952 1777.86 74.952H1778.1C1778.45 74.952 1778.63 75.144 1778.63 75.528V92.472C1778.63 92.824 1778.45 93 1778.1 93H1774.55C1774.23 93 1774.07 92.824 1774.07 92.472V90.744ZM1769.46 89.112C1770.07 89.112 1770.72 88.984 1771.43 88.728C1772.16 88.44 1772.79 87.928 1773.3 87.192C1773.81 86.456 1774.07 85.368 1774.07 83.928C1774.07 82.488 1773.81 81.416 1773.3 80.712C1772.79 79.976 1772.18 79.496 1771.47 79.272C1770.77 79.016 1770.11 78.888 1769.51 78.888C1768.87 78.888 1768.18 79.032 1767.44 79.32C1766.74 79.608 1766.13 80.12 1765.62 80.856C1765.14 81.592 1764.9 82.616 1764.9 83.928C1764.9 85.304 1765.15 86.376 1765.67 87.144C1766.21 87.88 1766.83 88.392 1767.54 88.68C1768.24 88.968 1768.88 89.112 1769.46 89.112ZM1787.45 77.592C1788 76.568 1788.65 75.88 1789.42 75.528C1790.19 75.144 1791.23 74.952 1792.54 74.952H1793.07C1793.39 74.952 1793.55 75.144 1793.55 75.528V78.792C1793.55 79.176 1793.39 79.368 1793.07 79.368H1791.82C1790.06 79.368 1788.91 79.816 1788.36 80.712C1787.85 81.576 1787.6 82.856 1787.6 84.552V92.472C1787.6 92.824 1787.44 93 1787.12 93H1783.52C1783.23 93 1783.08 92.824 1783.08 92.472V75.528C1783.08 75.144 1783.23 74.952 1783.52 74.952H1783.76C1785.84 74.952 1787.07 75.832 1787.45 77.592ZM1796.58 70.248C1796.58 69.48 1796.82 68.856 1797.3 68.376C1797.81 67.864 1798.43 67.608 1799.17 67.608C1799.9 67.608 1800.51 67.864 1800.99 68.376C1801.5 68.856 1801.76 69.48 1801.76 70.248C1801.76 70.984 1801.5 71.608 1800.99 72.12C1800.51 72.632 1799.9 72.888 1799.17 72.888C1798.43 72.888 1797.81 72.632 1797.3 72.12C1796.82 71.608 1796.58 70.984 1796.58 70.248ZM1797.39 93C1797.07 93 1796.91 92.824 1796.91 92.472V75.528C1796.91 75.144 1797.07 74.952 1797.39 74.952H1797.63C1798.85 74.952 1799.79 75.272 1800.46 75.912C1801.14 76.552 1801.47 77.592 1801.47 79.032V92.472C1801.47 92.824 1801.3 93 1800.94 93H1797.39ZM1819.25 90.744C1818.61 91.608 1817.8 92.28 1816.8 92.76C1815.81 93.208 1814.76 93.432 1813.64 93.432C1811.84 93.432 1810.32 93 1809.08 92.136C1807.86 91.272 1806.93 90.12 1806.29 88.68C1805.68 87.24 1805.38 85.656 1805.38 83.928C1805.38 82.136 1805.72 80.536 1806.39 79.128C1807.06 77.688 1808.02 76.552 1809.27 75.72C1810.55 74.888 1812.04 74.472 1813.73 74.472C1815.14 74.472 1816.32 74.728 1817.28 75.24C1818.28 75.752 1819.06 76.36 1819.64 77.064C1819.89 76.328 1820.31 75.8 1820.88 75.48C1821.49 75.128 1822.21 74.952 1823.04 74.952H1823.28C1823.64 74.952 1823.81 75.144 1823.81 75.528V92.472C1823.81 92.824 1823.64 93 1823.28 93H1819.73C1819.41 93 1819.25 92.824 1819.25 92.472V90.744ZM1814.64 89.112C1815.25 89.112 1815.91 88.984 1816.61 88.728C1817.35 88.44 1817.97 87.928 1818.48 87.192C1819 86.456 1819.25 85.368 1819.25 83.928C1819.25 82.488 1819 81.416 1818.48 80.712C1817.97 79.976 1817.36 79.496 1816.66 79.272C1815.96 79.016 1815.3 78.888 1814.69 78.888C1814.05 78.888 1813.36 79.032 1812.63 79.32C1811.92 79.608 1811.32 80.12 1810.8 80.856C1810.32 81.592 1810.08 82.616 1810.08 83.928C1810.08 85.304 1810.34 86.376 1810.85 87.144C1811.4 87.88 1812.02 88.392 1812.72 88.68C1813.43 88.968 1814.07 89.112 1814.64 89.112ZM1827.84 87.768C1828.58 88.376 1829.34 88.856 1830.14 89.208C1830.98 89.56 1831.97 89.736 1833.12 89.736C1835.07 89.736 1836.05 89.112 1836.05 87.864C1836.05 87.32 1835.74 86.888 1835.14 86.568C1834.56 86.248 1833.84 85.944 1832.98 85.656C1832.14 85.368 1831.3 85.016 1830.43 84.6C1829.57 84.184 1828.83 83.64 1828.22 82.968C1827.65 82.264 1827.36 81.32 1827.36 80.136C1827.36 78.824 1827.68 77.768 1828.32 76.968C1828.99 76.136 1829.86 75.528 1830.91 75.144C1832 74.76 1833.15 74.568 1834.37 74.568C1835.87 74.568 1837.12 74.808 1838.11 75.288C1838.94 75.64 1839.49 76.072 1839.74 76.584C1840 77.064 1840 77.752 1839.74 78.648L1839.6 79.176C1839.5 79.432 1839.38 79.56 1839.22 79.56C1839.12 79.56 1839.04 79.544 1838.98 79.512C1838.91 79.448 1838.82 79.4 1838.69 79.368C1837.18 78.632 1835.71 78.264 1834.27 78.264C1833.63 78.264 1833.09 78.392 1832.64 78.648C1832.19 78.904 1831.97 79.304 1831.97 79.848C1831.97 80.392 1832.26 80.84 1832.83 81.192C1833.44 81.512 1834.16 81.816 1834.99 82.104C1835.86 82.392 1836.72 82.744 1837.58 83.16C1838.45 83.576 1839.17 84.12 1839.74 84.792C1840.35 85.464 1840.66 86.36 1840.66 87.48C1840.66 89.272 1840.02 90.728 1838.74 91.848C1837.46 92.936 1835.76 93.48 1833.65 93.48C1832.3 93.48 1831.12 93.256 1830.1 92.808C1829.1 92.328 1828.32 91.704 1827.74 90.936C1827.17 90.168 1826.88 89.368 1826.88 88.536C1826.88 87.896 1827.07 87.576 1827.46 87.576C1827.58 87.576 1827.71 87.64 1827.84 87.768Z" fill="#404040"/>
<path d="M135.752 86.272C137.117 87.68 138.632 88.8107 140.296 89.664C142.003 90.5173 144.093 90.944 146.568 90.944C148.957 90.944 150.771 90.5173 152.008 89.664C153.288 88.768 153.928 87.5947 153.928 86.144C153.928 85.0347 153.48 84.16 152.584 83.52C151.688 82.8373 150.515 82.2613 149.064 81.792C147.656 81.28 146.163 80.768 144.584 80.256C143.005 79.7013 141.491 79.0187 140.04 78.208C138.632 77.3973 137.48 76.3307 136.584 75.008C135.688 73.6853 135.24 71.9787 135.24 69.888C135.24 67.712 135.795 65.8773 136.904 64.384C138.013 62.8907 139.507 61.76 141.384 60.992C143.304 60.1813 145.416 59.776 147.72 59.776C149.341 59.776 150.877 59.904 152.328 60.16C153.779 60.416 155.101 60.7787 156.296 61.248C157.619 61.7173 158.429 62.336 158.728 63.104C159.069 63.8293 159.133 64.768 158.92 65.92L158.6 67.328C158.515 67.584 158.429 67.776 158.344 67.904C158.259 68.032 158.109 68.096 157.896 68.096C157.683 68.096 157.363 67.9893 156.936 67.776C155.613 67.0507 154.184 66.4747 152.648 66.048C151.112 65.6213 149.491 65.408 147.784 65.408C146.035 65.408 144.563 65.7493 143.368 66.432C142.216 67.1147 141.64 68.16 141.64 69.568C141.64 70.72 142.088 71.6587 142.984 72.384C143.88 73.0667 145.032 73.6427 146.44 74.112C147.891 74.5813 149.405 75.072 150.984 75.584C152.563 76.096 154.056 76.736 155.464 77.504C156.915 78.272 158.088 79.296 158.984 80.576C159.88 81.856 160.328 83.52 160.328 85.568C160.328 88.896 159.176 91.584 156.872 93.632C154.611 95.6373 151.411 96.64 147.272 96.64C144.243 96.64 141.747 96.1707 139.784 95.232C137.864 94.2507 136.435 93.0347 135.496 91.584C134.6 90.1333 134.152 88.704 134.152 87.296C134.152 86.4 134.451 85.952 135.048 85.952C135.347 85.952 135.581 86.0587 135.752 86.272ZM170.962 88.128V95.296C170.962 95.7653 170.748 96 170.322 96H165.522C165.138 96 164.946 95.7653 164.946 95.296V61.184C164.946 60.672 165.138 60.416 165.522 60.416H165.842C167.506 60.416 168.764 60.8427 169.618 61.696C170.514 62.5067 170.962 63.872 170.962 65.792V80.64L178.45 72.768C178.834 72.2133 179.282 71.936 179.794 71.936H185.17C185.383 71.936 185.511 72.0427 185.554 72.256C185.596 72.4267 185.575 72.576 185.49 72.704L177.938 80.704L186.45 95.296C186.535 95.4667 186.535 95.6373 186.45 95.808C186.364 95.936 186.215 96 186.002 96H180.753C180.071 96 179.623 95.744 179.41 95.232L173.714 85.248L170.962 88.128ZM189.559 65.664C189.559 64.64 189.879 63.808 190.519 63.168C191.201 62.4853 192.033 62.144 193.015 62.144C193.996 62.144 194.807 62.4853 195.447 63.168C196.129 63.808 196.47 64.64 196.47 65.664C196.47 66.6453 196.129 67.4773 195.447 68.16C194.807 68.8427 193.996 69.184 193.015 69.184C192.033 69.184 191.201 68.8427 190.519 68.16C189.879 67.4773 189.559 66.6453 189.559 65.664ZM190.647 96C190.22 96 190.007 95.7653 190.007 95.296V72.704C190.007 72.192 190.22 71.936 190.647 71.936H190.967C192.588 71.936 193.847 72.3627 194.743 73.216C195.639 74.0693 196.087 75.456 196.087 77.376V95.296C196.087 95.7653 195.852 96 195.383 96H190.647ZM208.212 93.056V95.296C208.212 95.7653 207.998 96 207.572 96H202.772C202.388 96 202.196 95.7653 202.196 95.296V61.184C202.196 60.672 202.388 60.416 202.772 60.416H203.092C204.756 60.416 206.014 60.8427 206.868 61.696C207.764 62.5067 208.212 63.872 208.212 65.792V75.008C208.937 73.9413 209.918 73.0667 211.156 72.384C212.436 71.6587 213.972 71.296 215.764 71.296C219.134 71.296 221.801 72.448 223.764 74.752C225.726 77.0133 226.708 80.064 226.708 83.904C226.708 86.208 226.281 88.32 225.428 90.24C224.617 92.16 223.401 93.696 221.78 94.848C220.158 96 218.153 96.576 215.764 96.576C212.521 96.576 210.004 95.4027 208.212 93.056ZM214.292 90.816C215.102 90.816 215.977 90.624 216.916 90.24C217.854 89.856 218.665 89.1733 219.348 88.192C220.03 87.168 220.372 85.7387 220.372 83.904C220.372 82.112 220.03 80.7467 219.348 79.808C218.708 78.8267 217.918 78.144 216.98 77.76C216.041 77.376 215.145 77.184 214.292 77.184C213.524 77.184 212.67 77.3547 211.732 77.696C210.793 77.9947 209.961 78.6347 209.236 79.616C208.553 80.5547 208.212 81.984 208.212 83.904C208.212 85.7813 208.553 87.232 209.236 88.256C209.961 89.2373 210.793 89.92 211.732 90.304C212.713 90.6453 213.566 90.816 214.292 90.816ZM231.246 65.664C231.246 64.64 231.566 63.808 232.206 63.168C232.889 62.4853 233.721 62.144 234.702 62.144C235.683 62.144 236.494 62.4853 237.134 63.168C237.817 63.808 238.158 64.64 238.158 65.664C238.158 66.6453 237.817 67.4773 237.134 68.16C236.494 68.8427 235.683 69.184 234.702 69.184C233.721 69.184 232.889 68.8427 232.206 68.16C231.566 67.4773 231.246 66.6453 231.246 65.664ZM232.334 96C231.907 96 231.694 95.7653 231.694 95.296V72.704C231.694 72.192 231.907 71.936 232.334 71.936H232.654C234.275 71.936 235.534 72.3627 236.43 73.216C237.326 74.0693 237.774 75.456 237.774 77.376V95.296C237.774 95.7653 237.539 96 237.07 96H232.334ZM261.483 74.688V61.184C261.483 60.672 261.718 60.416 262.187 60.416H262.507C264.171 60.416 265.43 60.8427 266.283 61.696C267.179 62.5067 267.627 63.872 267.627 65.792V95.296C267.627 95.7653 267.414 96 266.987 96H262.187C261.718 96 261.483 95.7653 261.483 95.296V92.992C259.691 95.3813 257.195 96.576 253.995 96.576C251.606 96.576 249.579 96 247.915 94.848C246.294 93.696 245.056 92.16 244.203 90.24C243.392 88.32 242.987 86.208 242.987 83.904C242.987 81.5147 243.435 79.3813 244.331 77.504C245.227 75.584 246.528 74.0693 248.235 72.96C249.942 71.8507 251.99 71.296 254.379 71.296C256 71.296 257.408 71.5947 258.603 72.192C259.84 72.7893 260.8 73.6213 261.483 74.688ZM255.403 90.816C256.214 90.816 257.088 90.6453 258.027 90.304C258.966 89.92 259.776 89.2373 260.459 88.256C261.142 87.2747 261.483 85.824 261.483 83.904C261.483 81.984 261.142 80.5547 260.459 79.616C259.776 78.6347 258.966 77.9947 258.027 77.696C257.088 77.3547 256.235 77.184 255.467 77.184C254.614 77.184 253.696 77.376 252.715 77.76C251.734 78.144 250.902 78.8267 250.219 79.808C249.579 80.7467 249.259 82.112 249.259 83.904C249.259 85.7387 249.6 87.168 250.283 88.192C251.008 89.1733 251.84 89.856 252.779 90.24C253.76 90.624 254.635 90.816 255.403 90.816ZM272.996 65.664C272.996 64.64 273.316 63.808 273.956 63.168C274.639 62.4853 275.471 62.144 276.452 62.144C277.433 62.144 278.244 62.4853 278.884 63.168C279.567 63.808 279.908 64.64 279.908 65.664C279.908 66.6453 279.567 67.4773 278.884 68.16C278.244 68.8427 277.433 69.184 276.452 69.184C275.471 69.184 274.639 68.8427 273.956 68.16C273.316 67.4773 272.996 66.6453 272.996 65.664ZM274.084 96C273.657 96 273.444 95.7653 273.444 95.296V72.704C273.444 72.192 273.657 71.936 274.084 71.936H274.404C276.025 71.936 277.284 72.3627 278.18 73.216C279.076 74.0693 279.524 75.456 279.524 77.376V95.296C279.524 95.7653 279.289 96 278.82 96H274.084ZM287.681 77.44H284.033C283.606 77.44 283.393 77.2053 283.393 76.736V72.704C283.393 72.192 283.606 71.936 284.033 71.936H287.681V68.864C287.681 65.8347 288.342 63.616 289.665 62.208C290.988 60.8 292.694 60.096 294.785 60.096C296.278 60.096 297.494 60.3947 298.433 60.992C299.372 61.5467 300.054 62.2507 300.481 63.104C300.95 63.9147 301.185 64.7253 301.185 65.536C301.185 66.2613 300.972 66.624 300.545 66.624C300.289 66.624 300.076 66.5813 299.905 66.496C299.35 66.1547 298.817 65.8773 298.305 65.664C297.793 65.4507 297.238 65.344 296.641 65.344C295.66 65.344 294.934 65.6427 294.465 66.24C293.996 66.8373 293.761 67.84 293.761 69.248V71.936H299.649C300.161 71.936 300.417 72.192 300.417 72.704V76.736C300.417 77.2053 300.161 77.44 299.649 77.44H293.761V95.296C293.761 95.7653 293.526 96 293.057 96H288.385C287.916 96 287.681 95.7653 287.681 95.296V77.44ZM311.53 96.576L302.954 72.704C302.911 72.5333 302.911 72.3627 302.954 72.192C303.039 72.0213 303.167 71.936 303.338 71.936H304.682C306.431 71.936 307.711 72.2987 308.522 73.024C309.375 73.7493 310.165 75.1147 310.89 77.12L314.858 89.024L320.234 72.768C320.49 72.2133 320.831 71.936 321.258 71.936H325.994C326.207 71.936 326.335 72.0213 326.378 72.192C326.421 72.3627 326.421 72.5333 326.378 72.704L318.058 96.064C317.333 98.1547 316.543 100.011 315.69 101.632C314.879 103.296 313.877 104.597 312.682 105.536C311.487 106.475 309.973 106.944 308.138 106.944C306.773 106.944 305.621 106.645 304.682 106.048C303.743 105.493 303.039 104.768 302.57 103.872C302.101 102.976 301.866 102.101 301.866 101.248C301.866 100.949 301.93 100.672 302.058 100.416C302.186 100.16 302.378 100.032 302.634 100.032C302.719 100.032 302.805 100.053 302.89 100.096C303.018 100.181 303.125 100.267 303.21 100.352C304.362 101.205 305.514 101.632 306.666 101.632C307.861 101.632 308.799 101.248 309.482 100.48C310.165 99.7547 310.847 98.4533 311.53 96.576Z" fill="#404040"/>
<circle cx="86.5" cy="79.5" r="31.5" fill="#404040"/>
<path d="M68.6216 88.5751C68.6216 86.8772 70.038 85.5224 71.7342 85.5978L98.5469 86.7895C102.395 86.9605 104.713 91.1254 102.831 94.4858V94.4858C101.726 96.46 99.4655 97.4867 97.2514 97.0206L70.9879 91.4914C69.6088 91.2011 68.6216 89.9844 68.6216 88.5751V88.5751Z" fill="black"/>
<path d="M69.8226 77.4051C70.586 74.5042 73.4548 72.6808 76.4054 73.221L99.8048 77.5054C100.824 77.692 101.723 78.2838 102.297 79.1455V79.1455C104.039 81.758 102.064 85.24 98.9276 85.0852L74.0347 83.8559C72.7516 83.7925 71.5493 83.2108 70.7034 82.244V82.244C69.6678 81.0605 69.2871 79.4401 69.6873 77.9192L69.8226 77.4051Z" fill="black"/>
<path d="M70.3243 68.158C70.3243 66.899 71.3449 65.8784 72.6039 65.8784H99.8894C100.993 65.8784 102.053 66.311 102.842 67.0834V67.0834C105.754 69.936 103.328 74.85 99.2928 74.2735L72.2816 70.4147C71.1585 70.2543 70.3243 69.2925 70.3243 68.158V68.158Z" fill="black"/>
</svg>
