<svg width="74" height="74" viewBox="0 0 74 74" fill="none" xmlns="http://www.w3.org/2000/svg">
<circle cx="37" cy="37" r="37" fill="white"/>
<path d="M16 47.6596C16 45.6653 17.6637 44.0739 19.656 44.1625L51.1504 45.5622C55.6698 45.7631 58.3931 50.6552 56.1827 54.6024V54.6024C54.8841 56.9212 52.2293 58.1272 49.6286 57.5797L18.7794 51.0851C17.1596 50.7441 16 49.315 16 47.6596V47.6596Z" fill="black"/>
<path d="M17.4107 34.5393C18.3074 31.132 21.6771 28.9902 25.1428 29.6247L52.6278 34.6572C53.8244 34.8763 54.881 35.5714 55.5558 36.5836V36.5836C57.6015 39.6523 55.2811 43.7423 51.5975 43.5604L22.3582 42.1165C20.8511 42.042 19.4389 41.3587 18.4453 40.2231V40.2231C17.2288 38.8329 16.7817 36.9297 17.2518 35.1432L17.4107 34.5393Z" fill="black"/>
<path d="M18 23.6777C18 22.1988 19.1988 21 20.6777 21H52.7273C54.0238 21 55.2687 21.5082 56.1949 22.4155V22.4155C59.6154 25.7661 56.7665 31.5381 52.0265 30.8609L20.299 26.3284C18.9798 26.14 18 25.0102 18 23.6777V23.6777Z" fill="black"/>
</svg>
