<svg width="384" height="125" viewBox="0 0 384 125" fill="none" xmlns="http://www.w3.org/2000/svg">
<path d="M92.128 71.408C94.176 73.52 96.448 75.216 98.944 76.496C101.504 77.776 104.64 78.416 108.352 78.416C111.936 78.416 114.656 77.776 116.512 76.496C118.432 75.152 119.392 73.392 119.392 71.216C119.392 69.552 118.72 68.24 117.376 67.28C116.032 66.256 114.272 65.392 112.096 64.688C109.984 63.92 107.744 63.152 105.376 62.384C103.008 61.552 100.736 60.528 98.56 59.312C96.448 58.096 94.72 56.496 93.376 54.512C92.032 52.528 91.36 49.968 91.36 46.832C91.36 43.568 92.192 40.816 93.856 38.576C95.52 36.336 97.76 34.64 100.576 33.488C103.456 32.272 106.624 31.664 110.08 31.664C112.512 31.664 114.816 31.856 116.992 32.24C119.168 32.624 121.152 33.168 122.944 33.872C124.928 34.576 126.144 35.504 126.592 36.656C127.104 37.744 127.2 39.152 126.88 40.88L126.4 42.992C126.272 43.376 126.144 43.664 126.016 43.856C125.888 44.048 125.664 44.144 125.344 44.144C125.024 44.144 124.544 43.984 123.904 43.664C121.92 42.576 119.776 41.712 117.472 41.072C115.168 40.432 112.736 40.112 110.176 40.112C107.552 40.112 105.344 40.624 103.552 41.648C101.824 42.672 100.96 44.24 100.96 46.352C100.96 48.08 101.632 49.488 102.976 50.576C104.32 51.6 106.048 52.464 108.16 53.168C110.336 53.872 112.608 54.608 114.976 55.376C117.344 56.144 119.584 57.104 121.696 58.256C123.872 59.408 125.632 60.944 126.976 62.864C128.32 64.784 128.992 67.28 128.992 70.352C128.992 75.344 127.264 79.376 123.808 82.448C120.416 85.456 115.616 86.96 109.408 86.96C104.864 86.96 101.12 86.256 98.176 84.848C95.296 83.376 93.152 81.552 91.744 79.376C90.4 77.2 89.728 75.056 89.728 72.944C89.728 71.6 90.176 70.928 91.072 70.928C91.52 70.928 91.872 71.088 92.128 71.408ZM144.942 74.192V84.944C144.942 85.648 144.622 86 143.982 86H136.782C136.206 86 135.918 85.648 135.918 84.944V33.776C135.918 33.008 136.206 32.624 136.782 32.624H137.262C139.758 32.624 141.646 33.264 142.926 34.544C144.27 35.76 144.942 37.808 144.942 40.688V62.96L156.174 51.152C156.75 50.32 157.422 49.904 158.19 49.904H166.254C166.574 49.904 166.766 50.064 166.83 50.384C166.894 50.64 166.862 50.864 166.734 51.056L155.406 63.056L168.174 84.944C168.302 85.2 168.302 85.456 168.174 85.712C168.046 85.904 167.822 86 167.502 86H159.63C158.606 86 157.934 85.616 157.614 84.848L149.07 69.872L144.942 74.192ZM172.838 40.496C172.838 38.96 173.318 37.712 174.278 36.752C175.302 35.728 176.55 35.216 178.022 35.216C179.494 35.216 180.71 35.728 181.67 36.752C182.694 37.712 183.206 38.96 183.206 40.496C183.206 41.968 182.694 43.216 181.67 44.24C180.71 45.264 179.494 45.776 178.022 45.776C176.55 45.776 175.302 45.264 174.278 44.24C173.318 43.216 172.838 41.968 172.838 40.496ZM174.47 86C173.83 86 173.51 85.648 173.51 84.944V51.056C173.51 50.288 173.83 49.904 174.47 49.904H174.95C177.382 49.904 179.27 50.544 180.614 51.824C181.958 53.104 182.63 55.184 182.63 58.064V84.944C182.63 85.648 182.278 86 181.574 86H174.47ZM200.817 81.584V84.944C200.817 85.648 200.497 86 199.857 86H192.657C192.081 86 191.793 85.648 191.793 84.944V33.776C191.793 33.008 192.081 32.624 192.657 32.624H193.137C195.633 32.624 197.521 33.264 198.801 34.544C200.145 35.76 200.817 37.808 200.817 40.688V54.512C201.905 52.912 203.377 51.6 205.233 50.576C207.153 49.488 209.457 48.944 212.145 48.944C217.201 48.944 221.201 50.672 224.145 54.128C227.089 57.52 228.561 62.096 228.561 67.856C228.561 71.312 227.921 74.48 226.641 77.36C225.425 80.24 223.601 82.544 221.169 84.272C218.737 86 215.729 86.864 212.145 86.864C207.281 86.864 203.505 85.104 200.817 81.584ZM209.937 78.224C211.153 78.224 212.465 77.936 213.873 77.36C215.281 76.784 216.497 75.76 217.521 74.288C218.545 72.752 219.057 70.608 219.057 67.856C219.057 65.168 218.545 63.12 217.521 61.712C216.561 60.24 215.377 59.216 213.969 58.64C212.561 58.064 211.217 57.776 209.937 57.776C208.785 57.776 207.505 58.032 206.097 58.544C204.689 58.992 203.441 59.952 202.353 61.424C201.329 62.832 200.817 64.976 200.817 67.856C200.817 70.672 201.329 72.848 202.353 74.384C203.441 75.856 204.689 76.88 206.097 77.456C207.569 77.968 208.849 78.224 209.937 78.224ZM235.369 40.496C235.369 38.96 235.849 37.712 236.809 36.752C237.833 35.728 239.081 35.216 240.553 35.216C242.025 35.216 243.241 35.728 244.201 36.752C245.225 37.712 245.737 38.96 245.737 40.496C245.737 41.968 245.225 43.216 244.201 44.24C243.241 45.264 242.025 45.776 240.553 45.776C239.081 45.776 237.833 45.264 236.809 44.24C235.849 43.216 235.369 41.968 235.369 40.496ZM237.001 86C236.361 86 236.041 85.648 236.041 84.944V51.056C236.041 50.288 236.361 49.904 237.001 49.904H237.481C239.913 49.904 241.801 50.544 243.145 51.824C244.489 53.104 245.161 55.184 245.161 58.064V84.944C245.161 85.648 244.809 86 244.105 86H237.001ZM280.725 54.032V33.776C280.725 33.008 281.077 32.624 281.781 32.624H282.261C284.757 32.624 286.645 33.264 287.925 34.544C289.269 35.76 289.941 37.808 289.941 40.688V84.944C289.941 85.648 289.621 86 288.981 86H281.781C281.077 86 280.725 85.648 280.725 84.944V81.488C278.037 85.072 274.293 86.864 269.493 86.864C265.909 86.864 262.869 86 260.373 84.272C257.941 82.544 256.085 80.24 254.805 77.36C253.589 74.48 252.98 71.312 252.98 67.856C252.98 64.272 253.653 61.072 254.997 58.256C256.341 55.376 258.293 53.104 260.853 51.44C263.413 49.776 266.485 48.944 270.069 48.944C272.501 48.944 274.613 49.392 276.405 50.288C278.261 51.184 279.701 52.432 280.725 54.032ZM271.605 78.224C272.821 78.224 274.133 77.968 275.541 77.456C276.949 76.88 278.165 75.856 279.189 74.384C280.213 72.912 280.725 70.736 280.725 67.856C280.725 64.976 280.213 62.832 279.189 61.424C278.165 59.952 276.949 58.992 275.541 58.544C274.133 58.032 272.853 57.776 271.701 57.776C270.421 57.776 269.045 58.064 267.573 58.64C266.101 59.216 264.853 60.24 263.829 61.712C262.869 63.12 262.389 65.168 262.389 67.856C262.389 70.608 262.901 72.752 263.924 74.288C265.013 75.76 266.261 76.784 267.669 77.36C269.141 77.936 270.453 78.224 271.605 78.224ZM297.994 40.496C297.994 38.96 298.474 37.712 299.434 36.752C300.458 35.728 301.706 35.216 303.178 35.216C304.65 35.216 305.866 35.728 306.826 36.752C307.85 37.712 308.362 38.96 308.362 40.496C308.362 41.968 307.85 43.216 306.826 44.24C305.866 45.264 304.65 45.776 303.178 45.776C301.706 45.776 300.458 45.264 299.434 44.24C298.474 43.216 297.994 41.968 297.994 40.496ZM299.626 86C298.986 86 298.666 85.648 298.666 84.944V51.056C298.666 50.288 298.986 49.904 299.626 49.904H300.106C302.538 49.904 304.426 50.544 305.77 51.824C307.114 53.104 307.786 55.184 307.786 58.064V84.944C307.786 85.648 307.434 86 306.73 86H299.626ZM320.022 58.16H314.55C313.91 58.16 313.59 57.808 313.59 57.104V51.056C313.59 50.288 313.91 49.904 314.55 49.904H320.022V45.296C320.022 40.752 321.014 37.424 322.998 35.312C324.982 33.2 327.542 32.144 330.678 32.144C332.918 32.144 334.742 32.592 336.15 33.488C337.558 34.32 338.582 35.376 339.222 36.656C339.926 37.872 340.278 39.088 340.278 40.304C340.278 41.392 339.958 41.936 339.318 41.936C338.934 41.936 338.614 41.872 338.358 41.744C337.526 41.232 336.726 40.816 335.958 40.496C335.19 40.176 334.358 40.016 333.462 40.016C331.99 40.016 330.902 40.464 330.198 41.36C329.494 42.256 329.142 43.76 329.142 45.872V49.904H337.974C338.742 49.904 339.126 50.288 339.126 51.056V57.104C339.126 57.808 338.742 58.16 337.974 58.16H329.142V84.944C329.142 85.648 328.79 86 328.086 86H321.078C320.374 86 320.022 85.648 320.022 84.944V58.16ZM355.795 86.864L342.931 51.056C342.867 50.8 342.867 50.544 342.931 50.288C343.059 50.032 343.251 49.904 343.507 49.904H345.523C348.147 49.904 350.067 50.448 351.283 51.536C352.563 52.624 353.747 54.672 354.835 57.68L360.787 75.536L368.851 51.152C369.235 50.32 369.747 49.904 370.387 49.904H377.491C377.811 49.904 378.003 50.032 378.067 50.288C378.131 50.544 378.131 50.8 378.067 51.056L365.587 86.096C364.499 89.232 363.315 92.016 362.035 94.448C360.819 96.944 359.315 98.896 357.523 100.304C355.731 101.712 353.459 102.416 350.707 102.416C348.659 102.416 346.931 101.968 345.523 101.072C344.115 100.24 343.059 99.152 342.355 97.808C341.651 96.464 341.299 95.152 341.299 93.872C341.299 93.424 341.395 93.008 341.587 92.624C341.779 92.24 342.067 92.048 342.451 92.048C342.579 92.048 342.707 92.08 342.835 92.144C343.027 92.272 343.187 92.4 343.315 92.528C345.043 93.808 346.771 94.448 348.499 94.448C350.291 94.448 351.699 93.872 352.723 92.72C353.747 91.632 354.771 89.68 355.795 86.864Z" fill="white"/>
<circle cx="37" cy="62" r="37" fill="white"/>
<path d="M16 72.6596C16 70.6653 17.6637 69.0739 19.656 69.1625L51.1504 70.5622C55.6698 70.7631 58.3931 75.6552 56.1827 79.6024V79.6024C54.8841 81.9212 52.2293 83.1272 49.6286 82.5797L18.7794 76.0851C17.1596 75.7441 16 74.315 16 72.6596V72.6596Z" fill="black"/>
<path d="M17.4107 59.5393C18.3074 56.132 21.6771 53.9902 25.1428 54.6247L52.6278 59.6572C53.8244 59.8763 54.881 60.5714 55.5558 61.5836V61.5836C57.6015 64.6523 55.2811 68.7423 51.5975 68.5604L22.3582 67.1165C20.8511 67.042 19.4389 66.3587 18.4453 65.2231V65.2231C17.2288 63.8329 16.7817 61.9297 17.2518 60.1432L17.4107 59.5393Z" fill="black"/>
<path d="M18 48.6777C18 47.1988 19.1988 46 20.6777 46H52.7273C54.0238 46 55.2687 46.5082 56.1949 47.4155V47.4155C59.6154 50.7661 56.7665 56.5381 52.0265 55.8609L20.299 51.3284C18.9798 51.14 18 50.0102 18 48.6777V48.6777Z" fill="black"/>
</svg>
